<?xml version="1.0" encoding="UTF-8" standalone="no"?>
<!DOCTYPE svg PUBLIC "-//W3C//DTD SVG 1.1//EN" "http://www.w3.org/Graphics/SVG/1.1/DTD/svg11.dtd">
<svg width="100%" height="100%" viewBox="0 0 7016 4961" version="1.1" xmlns="http://www.w3.org/2000/svg" xmlns:xlink="http://www.w3.org/1999/xlink" xml:space="preserve" xmlns:serif="http://www.serif.com/" style="fill-rule:evenodd;clip-rule:evenodd;stroke-linejoin:round;stroke-miterlimit:2;">
    <g transform="matrix(1,0,0,1,-522.274,21.5501)">
        <path d="M1909.39,4272.33L1940.01,4272.33L1940.01,3996.79L1909.39,3996.79L1909.39,3896.37L2190.45,3896.37C2243.11,3896.37 2283.32,3907.18 2311.08,3928.82C2338.84,3950.45 2352.71,3985.56 2352.71,4034.14C2352.71,4061.49 2347.2,4085.16 2336.18,4105.17C2325.16,4125.17 2309.44,4139.05 2289.03,4146.81L2289.64,4152.93C2328.83,4159.05 2348.43,4183.14 2348.43,4225.18L2348.43,4272.33L2377.21,4272.33L2377.21,4372.75L2183.1,4372.75L2183.1,4228.86C2183.1,4212.94 2180.75,4200.89 2176.06,4192.73C2171.37,4184.57 2164.02,4179.05 2154.02,4176.2C2144.01,4173.34 2129.83,4171.91 2111.46,4171.91L2111.46,4272.33L2151.87,4272.33L2151.87,4372.75L1909.39,4372.75L1909.39,4272.33ZM2144.53,4097.21C2156.36,4097.21 2165.24,4094.04 2171.16,4087.72C2177.08,4081.39 2180.04,4071.49 2180.04,4058.02L2180.04,4035.98C2180.04,4022.51 2177.08,4012.61 2171.16,4006.28C2165.24,3999.95 2156.36,3996.79 2144.53,3996.79L2111.46,3996.79L2111.46,4097.21L2144.53,4097.21Z" style="fill-rule:nonzero;"/>
        <path d="M2800.93,4272.33L2800.93,4372.75L2633.16,4372.75L2633.16,4324.99C2603.76,4362.55 2567.03,4381.32 2522.94,4381.32C2489.06,4381.32 2463.65,4370.71 2446.7,4349.48C2429.76,4328.26 2421.29,4299.07 2421.29,4261.92L2421.29,4132.72L2394.35,4132.72L2394.35,4032.3L2562.13,4032.3L2562.13,4233.14C2562.13,4246.61 2565.09,4256.51 2571.01,4262.84C2576.93,4269.17 2585.8,4272.33 2597.64,4272.33C2609.48,4272.33 2618.36,4269.17 2624.28,4262.84C2630.2,4256.51 2633.16,4246.61 2633.16,4233.14L2633.16,4132.72L2600.09,4132.72L2600.09,4032.3L2773.99,4032.3L2773.99,4272.33L2800.93,4272.33Z" style="fill-rule:nonzero;"/>
        <path d="M2966.87,4381.32C2915.44,4381.32 2865.84,4373.16 2818.08,4356.83L2818.08,4266.21L2917.27,4266.21L2917.27,4272.33C2917.27,4291.93 2929.72,4301.72 2954.62,4301.72C2976.67,4301.72 2987.69,4294.17 2987.69,4279.07C2987.69,4270.9 2984.53,4264.78 2978.2,4260.7C2971.87,4256.61 2960.75,4253.15 2944.83,4250.29L2914.21,4244.78C2850.12,4233.35 2818.08,4197.02 2818.08,4135.78C2818.08,4100.27 2831.55,4072.72 2858.49,4053.12C2885.43,4033.53 2921.76,4023.73 2967.48,4023.73C3018.51,4023.73 3061.58,4032.3 3096.68,4049.45L3096.68,4134.56L3003.61,4134.56L3003.61,4128.44C3003.61,4120.27 3000.85,4114.05 2995.34,4109.76C2989.83,4105.47 2981.77,4103.33 2971.16,4103.33C2950.75,4103.33 2940.54,4109.86 2940.54,4122.93C2940.54,4129.86 2943.4,4135.17 2949.11,4138.85C2954.83,4142.52 2965.24,4145.99 2980.34,4149.26L3015.24,4155.99C3051.57,4162.93 3077.5,4175.79 3093.01,4194.57C3108.52,4213.34 3116.28,4237.43 3116.28,4266.82C3116.28,4303.97 3103.32,4332.34 3077.39,4351.93C3051.47,4371.53 3014.63,4381.32 2966.87,4381.32Z" style="fill-rule:nonzero;"/>
        <path d="M3287.11,4381.32C3243.84,4381.32 3211.29,4370.81 3189.45,4349.79C3167.61,4328.77 3156.69,4293.35 3156.69,4243.55L3156.69,4132.72L3129.75,4132.72L3129.75,4032.3C3145.26,4032.3 3156.89,4028.32 3164.65,4020.36C3172.41,4012.4 3176.28,4001.48 3176.28,3987.6L3176.28,3960.05L3306.1,3960.05L3306.1,4032.3L3388.76,4032.3L3388.76,4132.72L3306.1,4132.72L3306.1,4233.14C3306.1,4246.61 3309.06,4256.51 3314.97,4262.84C3320.89,4269.17 3329.77,4272.33 3341.61,4272.33C3357.12,4272.33 3374.06,4270.49 3392.43,4266.82L3392.43,4362.95C3381,4367.44 3365.59,4371.63 3346.2,4375.51C3326.81,4379.39 3307.12,4381.32 3287.11,4381.32Z" style="fill-rule:nonzero;"/>
        <path d="M4272.34,3996.79L4241.72,3996.79L4241.72,4272.33L4272.34,4272.33L4272.34,4372.75L4040.88,4372.75L4040.88,4272.33L4070.27,4272.33L4070.27,4058.02L3966.18,4372.75L3875.55,4372.75L3768.4,4061.08L3768.4,4272.33L3797.79,4272.33L3797.79,4372.75L3596.95,4372.75L3596.95,4272.33L3627.56,4272.33L3627.56,3996.79L3596.95,3996.79L3596.95,3896.37L3877.39,3896.37L3941.07,4087.41L4002.3,3896.37L4272.34,3896.37L4272.34,3996.79Z" style="fill-rule:nonzero;"/>
        <path d="M4478.07,4381.32C4420.11,4381.32 4374.8,4366.12 4342.14,4335.71C4309.48,4305.29 4293.15,4260.9 4293.15,4202.53C4293.15,4144.15 4309.48,4099.76 4342.14,4069.35C4374.8,4038.93 4420.11,4023.73 4478.07,4023.73C4536.86,4023.73 4582.37,4039.14 4614.62,4069.96C4646.87,4100.78 4662.99,4144.97 4662.99,4202.53C4662.99,4260.9 4646.67,4305.29 4614.01,4335.71C4581.35,4366.12 4536.04,4381.32 4478.07,4381.32ZM4478.07,4272.33C4489.91,4272.33 4498.79,4269.17 4504.71,4262.84C4510.63,4256.51 4513.59,4246.61 4513.59,4233.14L4513.59,4171.91C4513.59,4158.44 4510.63,4148.54 4504.71,4142.21C4498.79,4135.89 4489.91,4132.72 4478.07,4132.72C4466.24,4132.72 4457.36,4135.89 4451.44,4142.21C4445.52,4148.54 4442.56,4158.44 4442.56,4171.91L4442.56,4233.14C4442.56,4246.61 4445.52,4256.51 4451.44,4262.84C4457.36,4269.17 4466.24,4272.33 4478.07,4272.33Z" style="fill-rule:nonzero;"/>
        <path d="M4944.05,4023.73C4952.21,4023.73 4959.97,4024.55 4967.32,4026.18C4974.66,4027.81 4980.79,4029.85 4985.69,4032.3L4985.69,4149.26C4968.95,4142.32 4950.99,4138.85 4931.8,4138.85C4906.09,4138.85 4886.29,4145.58 4872.41,4159.05C4858.53,4172.52 4851.59,4192.52 4851.59,4219.06L4851.59,4272.33L4906.7,4272.33L4906.7,4372.75L4683.81,4372.75L4683.81,4272.33L4710.76,4272.33L4710.76,4132.72L4683.81,4132.72L4683.81,4032.3L4851.59,4032.3L4851.59,4077C4863.02,4059.86 4876.08,4046.69 4890.78,4037.51C4905.47,4028.32 4923.23,4023.73 4944.05,4023.73Z" style="fill-rule:nonzero;"/>
        <path d="M5362.26,4272.33L5362.26,4372.75L5200.61,4372.75L5200.61,4331.11C5191.63,4344.18 5179.08,4355.81 5162.95,4366.02C5146.83,4376.22 5127.13,4381.32 5103.86,4381.32C5073.25,4381.32 5049.16,4373.16 5031.61,4356.83C5014.06,4340.5 5005.28,4317.44 5005.28,4287.64C5005.28,4210.49 5070.8,4170.89 5201.84,4168.85C5200.61,4154.97 5195.3,4145.48 5185.91,4140.38C5176.53,4135.27 5160.61,4132.72 5138.15,4132.72C5119.78,4132.72 5100.09,4134.66 5079.07,4138.54C5058.04,4142.42 5038.76,4147.62 5021.2,4154.15L5021.2,4041.49C5042.84,4036.18 5066.31,4031.89 5091.62,4028.63C5116.93,4025.36 5141.62,4023.73 5165.71,4023.73C5226.53,4023.73 5270.01,4034.75 5296.13,4056.8C5322.26,4078.84 5335.32,4112.92 5335.32,4159.05L5335.32,4272.33L5362.26,4272.33ZM5200.61,4229.47C5182.24,4229.47 5168.06,4231.92 5158.06,4236.82C5148.05,4241.72 5143.05,4249.88 5143.05,4261.31C5143.05,4268.25 5145.2,4273.86 5149.48,4278.15C5153.77,4282.43 5159.79,4284.58 5167.55,4284.58C5178.16,4284.58 5186.32,4280.09 5192.04,4271.11C5197.75,4262.13 5200.61,4249.47 5200.61,4233.14L5200.61,4229.47Z" style="fill-rule:nonzero;"/>
        <path d="M5455.34,4372.75L5378.18,4132.72L5352.47,4132.72L5352.47,4032.3L5541.67,4032.3L5541.67,4132.72L5515.95,4132.72L5548.41,4253.96L5554.53,4253.96L5586.98,4132.72L5561.27,4132.72L5561.27,4032.3L5738.84,4032.3L5738.84,4132.72L5713.12,4132.72L5637.81,4372.75L5455.34,4372.75Z" style="fill-rule:nonzero;"/>
        <path d="M5785.38,3998.62L5785.38,3896.37L5910.29,3896.37L5910.29,3998.62L5785.38,3998.62ZM5755.98,4372.75L5755.98,4272.33L5782.93,4272.33L5782.93,4132.72L5755.98,4132.72L5755.98,4032.3L5923.76,4032.3L5923.76,4272.33L5950.7,4272.33L5950.7,4372.75L5755.98,4372.75Z" style="fill-rule:nonzero;"/>
        <path d="M6324.83,4272.33L6324.83,4372.75L6163.18,4372.75L6163.18,4331.11C6154.2,4344.18 6141.64,4355.81 6125.52,4366.02C6109.4,4376.22 6089.7,4381.32 6066.43,4381.32C6035.81,4381.32 6011.73,4373.16 5994.18,4356.83C5976.62,4340.5 5967.85,4317.44 5967.85,4287.64C5967.85,4210.49 6033.36,4170.89 6164.4,4168.85C6163.18,4154.97 6157.87,4145.48 6148.48,4140.38C6139.09,4135.27 6123.17,4132.72 6100.72,4132.72C6082.35,4132.72 6062.65,4134.66 6041.63,4138.54C6020.61,4142.42 6001.32,4147.62 5983.77,4154.15L5983.77,4041.49C6005.4,4036.18 6028.88,4031.89 6054.18,4028.63C6079.49,4025.36 6104.19,4023.73 6128.28,4023.73C6189.1,4023.73 6232.57,4034.75 6258.7,4056.8C6284.82,4078.84 6297.89,4112.92 6297.89,4159.05L6297.89,4272.33L6324.83,4272.33ZM6163.18,4229.47C6144.81,4229.47 6130.62,4231.92 6120.62,4236.82C6110.62,4241.72 6105.62,4249.88 6105.62,4261.31C6105.62,4268.25 6107.76,4273.86 6112.05,4278.15C6116.33,4282.43 6122.36,4284.58 6130.11,4284.58C6140.73,4284.58 6148.89,4280.09 6154.6,4271.11C6160.32,4262.13 6163.18,4249.47 6163.18,4233.14L6163.18,4229.47Z" style="fill-rule:nonzero;"/>
    </g>
    <g id="v2" transform="matrix(1,0,0,1,-334.388,-94.4278)">
        <g id="rustacean-flat-gesture.svg" transform="matrix(4.16667,0,0,4.16667,3636.94,2345.68)">
            <g transform="matrix(1,0,0,1,-600,-400)">
                <g id="Layer-1" serif:id="Layer 1">
                    <g transform="matrix(1,0,0,1,654.172,668.359)">
                        <path d="M0,-322.648C-114.597,-322.648 -218.172,-308.869 -296.172,-286.419L-296.172,-291.49C-374.172,-266.395 -423.853,-231.531 -423.853,-192.984C-423.853,-186.907 -422.508,-180.922 -420.15,-175.053L-428.134,-160.732C-428.134,-160.732 -434.547,-152.373 -423.199,-134.733C-413.189,-119.179 -363.035,-58.295 -336.571,-26.413C-325.204,-10.065 -317.488,0 -316.814,-0.973C-315.753,-2.516 -323.878,-33.202 -346.453,-68.215C-356.986,-87.02 -369.811,-111.934 -377.361,-130.335C-356.28,-116.993 -328.172,-104.89 -296.172,-94.474L-296.172,-94.633C-218.172,-72.18 -114.597,-58.404 0,-58.404C131.156,-58.404 248.828,-76.45 327.828,-104.895L327.828,-276.153C248.828,-304.6 131.156,-322.648 0,-322.648" style="fill:rgb(165,43,0);fill-rule:nonzero;"/>
                    </g>
                    <g transform="matrix(1,0,0,1,1099.87,554.94)">
                        <path d="M0,-50.399L-13.433,-78.227C-13.362,-79.283 -13.309,-80.341 -13.309,-81.402C-13.309,-112.95 -46.114,-142.022 -101.306,-165.303L-101.306,2.499C-75.555,-8.365 -54.661,-20.485 -39.72,-33.538C-44.118,-15.855 -59.157,19.917 -71.148,45.073C-90.855,81.054 -97.993,112.376 -97.077,113.926C-96.493,114.904 -89.77,104.533 -79.855,87.726C-56.783,54.85 -13.063,-7.914 -4.325,-23.901C5.574,-42.024 0,-50.399 0,-50.399" style="fill:rgb(165,43,0);fill-rule:nonzero;"/>
                    </g>
                    <g transform="matrix(1,0,0,1,1177.87,277.21)">
                        <path d="M0,227.175L-88.296,162.132C-89.126,159.237 -89.956,156.345 -90.812,153.474L-120.335,79.255C-122.233,75.376 -124.225,71.557 -126.224,67.771L-105.62,20.599C-103.501,15.793 -103.947,10.209 -106.759,5.848C-109.556,1.465 -114.31,-1.094 -119.376,-0.895L-169.146,0.914C-171.723,-2.442 -174.34,-5.766 -177.012,-9.032L-165.574,-59.592C-164.415,-64.724 -165.876,-70.1 -169.453,-73.83C-173.008,-77.546 -178.175,-79.084 -183.089,-77.88L-231.567,-65.961C-234.707,-68.736 -237.897,-71.474 -241.126,-74.157L-239.381,-126.064C-239.193,-131.318 -241.643,-136.311 -245.849,-139.227C-250.053,-142.161 -255.389,-142.603 -259.987,-140.423L-305.213,-118.921C-308.853,-121.011 -312.515,-123.081 -316.218,-125.084L-387.422,-155.863C-391.392,-157.181 -395.38,-158.446 -399.418,-159.655L-416.798,-208.159C-418.564,-213.104 -422.64,-216.735 -427.608,-217.756C-432.561,-218.768 -437.656,-217.053 -441.091,-213.217L-475.029,-175.246C-479.133,-175.717 -483.239,-176.147 -487.356,-176.505L-513.564,-220.659C-516.22,-225.131 -520.908,-227.852 -525.961,-227.852C-531.002,-227.852 -535.7,-225.131 -538.333,-220.659L-564.547,-176.505C-568.666,-176.147 -572.791,-175.717 -576.888,-175.246L-610.831,-213.217C-614.268,-217.053 -619.382,-218.768 -624.318,-217.756C-629.284,-216.721 -633.363,-213.104 -635.124,-208.159L-652.517,-159.655C-656.544,-158.446 -660.534,-157.173 -664.514,-155.863L-735.72,-125.084C-739.42,-123.081 -743.083,-121.022 -746.734,-118.921L-791.956,-140.423C-796.548,-142.612 -801.908,-142.161 -806.091,-139.227C-810.292,-136.311 -812.747,-131.318 -812.557,-126.064L-810.821,-74.157C-814.04,-71.474 -817.224,-68.736 -820.379,-65.961L-868.849,-77.88C-873.774,-79.075 -878.935,-77.546 -882.499,-73.83C-886.084,-70.1 -887.538,-64.724 -886.384,-59.592L-874.969,-9.032C-877.618,-5.753 -880.239,-2.442 -882.808,0.914L-932.579,-0.895C-937.602,-1.043 -942.396,1.465 -945.202,5.848C-948.014,10.209 -948.439,15.793 -946.348,20.599L-925.729,67.771C-927.732,71.557 -929.721,75.376 -931.635,79.255L-961.146,153.474C-961.37,154.215 -961.576,154.964 -961.799,155.707L-1043.82,242.829C-1043.82,242.829 -1056.38,252.68 -1038.09,275.831C-1021.95,296.252 -939.097,377.207 -895.338,419.62C-876.855,441.152 -864.195,454.486 -862.872,453.332C-860.784,451.5 -871.743,412.326 -908.147,366.362C-936.207,325.123 -972.625,261.696 -964.086,254.385C-964.086,254.385 -954.372,242.054 -934.882,233.178C-934.169,233.749 -935.619,232.613 -934.882,233.178C-934.882,233.178 -523.568,422.914 -142.036,236.388C-98.452,228.571 -72.068,251.917 -72.068,251.917C-62.969,257.193 -86.531,322.412 -105.906,365.583C-132.259,414.606 -136.123,452.859 -133.888,454.185C-132.479,455.027 -122.89,440.438 -109.214,417.219C-75.469,370.196 -11.675,280.554 0,258.781C13.239,234.094 0,227.175 0,227.175" style="fill:rgb(247,76,0);fill-rule:nonzero;"/>
                    </g>
                    <g transform="matrix(1,0,0,1,278.418,211.791)">
                        <path d="M0,253.04C0,253.04 -111.096,209.79 -129.876,163.242C-129.876,163.242 0.515,59.525 -155.497,-50.644L-159.726,89.773C-159.726,89.773 -205.952,45.179 -203.912,-32.91C-203.912,-32.91 -347.685,36.268 -179.436,158.667C-179.436,158.667 -173.76,224.365 -22.459,303.684L0,253.04Z" style="fill:rgb(247,76,0);fill-rule:nonzero;"/>
                    </g>
                    <g transform="matrix(1,0,0,1,729.948,492.523)">
                        <path d="M0,-87.016C0,-87.016 41.104,-132.025 82.21,-87.016C82.21,-87.016 114.507,-27.003 82.21,3C82.21,3 29.36,45.009 0,3C0,3 -35.232,-30.006 0,-87.016" style="fill-rule:nonzero;"/>
                    </g>
                    <g transform="matrix(1,0,0,1,777.536,422.196)">
                        <path d="M0,0.008C0,17.531 -10.329,31.738 -23.07,31.738C-35.809,31.738 -46.139,17.531 -46.139,0.008C-46.139,-17.521 -35.809,-31.73 -23.07,-31.73C-10.329,-31.73 0,-17.521 0,0.008" style="fill:white;fill-rule:nonzero;"/>
                    </g>
                    <g transform="matrix(1,0,0,1,546.49,486.263)">
                        <path d="M0,-93.046C0,-93.046 70.508,-124.265 89.753,-54.583C89.753,-54.583 109.912,26.635 31.851,31.219C31.851,31.219 -67.69,12.047 0,-93.046" style="fill-rule:nonzero;"/>
                    </g>
                    <g transform="matrix(1,0,0,1,581.903,423.351)">
                        <path d="M0,0.002C0,18.074 -10.653,32.731 -23.794,32.731C-36.931,32.731 -47.586,18.074 -47.586,0.002C-47.586,-18.076 -36.931,-32.729 -23.794,-32.729C-10.653,-32.729 0,-18.076 0,0.002" style="fill:white;fill-rule:nonzero;"/>
                    </g>
                </g>
            </g>
        </g>
        <g transform="matrix(4.16667,0,0,4.16667,5438.86,1753.53)">
            <path d="M0,232.466C0,232.466 53.179,230 123.032,159.004L132.93,137.025C132.93,137.025 24.513,29.177 193.048,-45.266C193.048,-45.266 178.293,-21.154 182.622,72.006C182.622,72.006 233.437,54.357 248.336,-27.934C248.336,-27.934 322.456,69.79 167.834,161.443C167.834,161.443 95.294,277.732 -6.971,266.593L0,232.466Z" style="fill:rgb(247,76,0);fill-rule:nonzero;"/>
        </g>
        <g>
            <path d="M1551.77,2230.89C1551.77,2230.89 1481.77,2359.67 1484.48,2410.35C1487.19,2461.04 1515.68,2516.37 1561.79,2544.99C1607.91,2573.62 1749.87,2649.29 1764.79,2672.35C1779.71,2695.41 1871.87,2651.36 1893.57,2647.29C1915.27,2643.22 1976.52,2638.06 2041.62,2684.18C2106.73,2730.29 2151.49,2804.89 2151.49,2804.89C2151.49,2804.89 2259.27,2921.18 2290.47,2940.16C2309.37,2951.67 2356.07,2979.34 2412.62,3005.93C2449.41,3023.23 2491.43,3042.35 2531.99,3056.99C2657.5,3102.29 2807.64,3135.94 2896.76,3153.11C3007.98,3174.54 3269.47,3210.51 3348.06,3217.04C3491.83,3228.97 3896.06,3229.43 3901.49,3219.93C3906.91,3210.44 3955.94,3161.61 3955.94,3161.61C3955.94,3161.61 3635.3,3154.83 3602.75,3150.76C3570.19,3146.69 3227.3,3107.13 3167.36,3097.86C3101.01,3087.6 2884.14,3035.99 2844.55,3028.69C2802.87,3021.01 2300.25,2880.1 2283.69,2858.97C2268.72,2839.87 2052.16,2503.14 2041.31,2480.32C2030.46,2457.49 2068.03,2453.42 1988,2412.73C1907.98,2372.04 1861.86,2366.61 1836.09,2308.29C1810.32,2249.97 1814.39,2252.68 1781.84,2244.54C1749.28,2236.41 1752,2241.83 1752,2241.83C1693.21,2210.35 1625.03,2211.73 1551.77,2230.89Z" style="fill:rgb(240,222,214);"/>
            <clipPath id="_clip1">
                <path d="M1551.77,2230.89C1551.77,2230.89 1481.77,2359.67 1484.48,2410.35C1487.19,2461.04 1515.68,2516.37 1561.79,2544.99C1607.91,2573.62 1749.87,2649.29 1764.79,2672.35C1779.71,2695.41 1871.87,2651.36 1893.57,2647.29C1915.27,2643.22 1976.52,2638.06 2041.62,2684.18C2106.73,2730.29 2151.49,2804.89 2151.49,2804.89C2151.49,2804.89 2259.27,2921.18 2290.47,2940.16C2309.37,2951.67 2356.07,2979.34 2412.62,3005.93C2449.41,3023.23 2491.43,3042.35 2531.99,3056.99C2657.5,3102.29 2807.64,3135.94 2896.76,3153.11C3007.98,3174.54 3269.47,3210.51 3348.06,3217.04C3491.83,3228.97 3896.06,3229.43 3901.49,3219.93C3906.91,3210.44 3955.94,3161.61 3955.94,3161.61C3955.94,3161.61 3635.3,3154.83 3602.75,3150.76C3570.19,3146.69 3227.3,3107.13 3167.36,3097.86C3101.01,3087.6 2884.14,3035.99 2844.55,3028.69C2802.87,3021.01 2300.25,2880.1 2283.69,2858.97C2268.72,2839.87 2052.16,2503.14 2041.31,2480.32C2030.46,2457.49 2068.03,2453.42 1988,2412.73C1907.98,2372.04 1861.86,2366.61 1836.09,2308.29C1810.32,2249.97 1814.39,2252.68 1781.84,2244.54C1749.28,2236.41 1752,2241.83 1752,2241.83C1693.21,2210.35 1625.03,2211.73 1551.77,2230.89Z"/>
            </clipPath>
            <g clip-path="url(#_clip1)">
                <ellipse cx="2774.33" cy="2604.91" rx="78.567" ry="80.77"/>
            </g>
            <g transform="matrix(1,0,0,1,2.50632,7.51895)">
                <path d="M1555.83,2242.77C1562.51,2241.43 1586.57,2232.08 1616.65,2230.74C1646.72,2229.4 1678.13,2226.73 1701.53,2236.09C1724.92,2245.44 1754.33,2249.45 1765.69,2256.81C1777.05,2264.16 1765.69,2262.82 1783.73,2277.53C1801.78,2292.23 1809.13,2286.88 1817.82,2315.62C1826.51,2344.36 1825.17,2356.39 1825.17,2356.39C1825.17,2356.39 1818.49,2350.38 1806.46,2327.65C1794.43,2304.93 1789.75,2300.92 1773.71,2288.22C1757.67,2275.52 1737.62,2264.16 1737.62,2264.16C1737.62,2264.16 1737.62,2282.2 1742.96,2296.24C1748.31,2310.27 1765.69,2343.69 1773.71,2354.39C1781.73,2365.08 1781.73,2377.78 1781.73,2377.78C1781.73,2377.78 1759.67,2351.71 1748.98,2335.67C1738.29,2319.63 1712.89,2257.47 1712.89,2257.47C1712.89,2257.47 1701.53,2266.16 1700.86,2284.21C1700.19,2302.25 1700.86,2334.34 1704.87,2350.38C1708.88,2366.41 1725.59,2393.15 1725.59,2393.15C1725.59,2393.15 1684.82,2343.69 1682.81,2333C1680.81,2322.3 1684.82,2269.5 1684.15,2261.48C1683.48,2253.46 1677.47,2248.79 1677.47,2248.79C1677.47,2248.79 1665.44,2259.48 1658.75,2278.19C1652.07,2296.91 1638.03,2334.34 1644.05,2355.72C1650.06,2377.11 1668.11,2415.2 1668.11,2415.2C1668.11,2415.2 1631.35,2370.43 1628.01,2359.06C1624.67,2347.7 1622.66,2324.31 1626.67,2310.27C1630.68,2296.24 1643.38,2244.11 1643.38,2244.11C1643.38,2244.11 1621.99,2261.48 1615.31,2278.86C1608.63,2296.24 1599.27,2330.32 1596.6,2347.7C1593.92,2365.08 1599.27,2413.87 1599.27,2413.87C1599.27,2413.87 1575.88,2347.7 1579.22,2329.66C1582.56,2311.61 1591.25,2248.12 1591.25,2248.12C1591.25,2248.12 1573.87,2247.45 1563.85,2264.16C1553.82,2280.87 1546.47,2286.88 1542.46,2304.93C1538.45,2322.97 1535.11,2338.35 1535.11,2338.35C1535.11,2338.35 1533.1,2301.59 1538.45,2285.55C1543.8,2269.5 1549.14,2244.11 1555.83,2242.77Z"/>
            </g>
        </g>
        <g transform="matrix(-1,0,0,1,7748.34,-1)">
            <path d="M1551.77,2230.89C1551.77,2230.89 1481.77,2359.67 1484.48,2410.35C1487.19,2461.04 1515.68,2516.37 1561.79,2544.99C1607.91,2573.62 1749.87,2649.29 1764.79,2672.35C1779.71,2695.41 1871.87,2651.36 1893.57,2647.29C1915.27,2643.22 1976.52,2638.06 2041.62,2684.18C2106.73,2730.29 2151.49,2804.89 2151.49,2804.89C2151.49,2804.89 2259.27,2921.18 2290.47,2940.16C2309.37,2951.67 2356.07,2979.34 2412.62,3005.93C2449.41,3023.23 2491.43,3042.35 2531.99,3056.99C2657.5,3102.29 2807.64,3135.94 2896.76,3153.11C3007.98,3174.54 3269.47,3210.51 3348.06,3217.04C3491.83,3228.97 3896.06,3229.43 3901.49,3219.93C3906.91,3210.44 3955.94,3161.61 3955.94,3161.61C3955.94,3161.61 3635.3,3154.83 3602.75,3150.76C3570.19,3146.69 3227.3,3107.13 3167.36,3097.86C3101.01,3087.6 2884.14,3035.99 2844.55,3028.69C2802.87,3021.01 2300.25,2880.1 2283.69,2858.97C2268.72,2839.87 2052.16,2503.14 2041.31,2480.32C2030.46,2457.49 2068.03,2453.42 1988,2412.73C1907.98,2372.04 1861.86,2366.61 1836.09,2308.29C1810.32,2249.97 1814.39,2252.68 1781.84,2244.54C1749.28,2236.41 1752,2241.83 1752,2241.83C1693.21,2210.35 1625.03,2211.73 1551.77,2230.89Z" style="fill:rgb(240,222,214);"/>
            <clipPath id="_clip2">
                <path d="M1551.77,2230.89C1551.77,2230.89 1481.77,2359.67 1484.48,2410.35C1487.19,2461.04 1515.68,2516.37 1561.79,2544.99C1607.91,2573.62 1749.87,2649.29 1764.79,2672.35C1779.71,2695.41 1871.87,2651.36 1893.57,2647.29C1915.27,2643.22 1976.52,2638.06 2041.62,2684.18C2106.73,2730.29 2151.49,2804.89 2151.49,2804.89C2151.49,2804.89 2259.27,2921.18 2290.47,2940.16C2309.37,2951.67 2356.07,2979.34 2412.62,3005.93C2449.41,3023.23 2491.43,3042.35 2531.99,3056.99C2657.5,3102.29 2807.64,3135.94 2896.76,3153.11C3007.98,3174.54 3269.47,3210.51 3348.06,3217.04C3491.83,3228.97 3896.06,3229.43 3901.49,3219.93C3906.91,3210.44 3955.94,3161.61 3955.94,3161.61C3955.94,3161.61 3635.3,3154.83 3602.75,3150.76C3570.19,3146.69 3227.3,3107.13 3167.36,3097.86C3101.01,3087.6 2884.14,3035.99 2844.55,3028.69C2802.87,3021.01 2300.25,2880.1 2283.69,2858.97C2268.72,2839.87 2052.16,2503.14 2041.31,2480.32C2030.46,2457.49 2068.03,2453.42 1988,2412.73C1907.98,2372.04 1861.86,2366.61 1836.09,2308.29C1810.32,2249.97 1814.39,2252.68 1781.84,2244.54C1749.28,2236.41 1752,2241.83 1752,2241.83C1693.21,2210.35 1625.03,2211.73 1551.77,2230.89Z"/>
            </clipPath>
            <g clip-path="url(#_clip2)">
                <ellipse cx="2774.33" cy="2604.91" rx="78.567" ry="80.77"/>
            </g>
            <g transform="matrix(1,0,0,1,2.50632,7.51895)">
                <path d="M1555.83,2242.77C1562.51,2241.43 1586.57,2232.08 1616.65,2230.74C1646.72,2229.4 1678.13,2226.73 1701.53,2236.09C1724.92,2245.44 1754.33,2249.45 1765.69,2256.81C1777.05,2264.16 1765.69,2262.82 1783.73,2277.53C1801.78,2292.23 1809.13,2286.88 1817.82,2315.62C1826.51,2344.36 1825.17,2356.39 1825.17,2356.39C1825.17,2356.39 1818.49,2350.38 1806.46,2327.65C1794.43,2304.93 1789.75,2300.92 1773.71,2288.22C1757.67,2275.52 1737.62,2264.16 1737.62,2264.16C1737.62,2264.16 1737.62,2282.2 1742.96,2296.24C1748.31,2310.27 1765.69,2343.69 1773.71,2354.39C1781.73,2365.08 1781.73,2377.78 1781.73,2377.78C1781.73,2377.78 1759.67,2351.71 1748.98,2335.67C1738.29,2319.63 1712.89,2257.47 1712.89,2257.47C1712.89,2257.47 1701.53,2266.16 1700.86,2284.21C1700.19,2302.25 1700.86,2334.34 1704.87,2350.38C1708.88,2366.41 1725.59,2393.15 1725.59,2393.15C1725.59,2393.15 1684.82,2343.69 1682.81,2333C1680.81,2322.3 1684.82,2269.5 1684.15,2261.48C1683.48,2253.46 1677.47,2248.79 1677.47,2248.79C1677.47,2248.79 1665.44,2259.48 1658.75,2278.19C1652.07,2296.91 1638.03,2334.34 1644.05,2355.72C1650.06,2377.11 1668.11,2415.2 1668.11,2415.2C1668.11,2415.2 1631.35,2370.43 1628.01,2359.06C1624.67,2347.7 1622.66,2324.31 1626.67,2310.27C1630.68,2296.24 1643.38,2244.11 1643.38,2244.11C1643.38,2244.11 1621.99,2261.48 1615.31,2278.86C1608.63,2296.24 1599.27,2330.32 1596.6,2347.7C1593.92,2365.08 1599.27,2413.87 1599.27,2413.87C1599.27,2413.87 1575.88,2347.7 1579.22,2329.66C1582.56,2311.61 1591.25,2248.12 1591.25,2248.12C1591.25,2248.12 1573.87,2247.45 1563.85,2264.16C1553.82,2280.87 1546.47,2286.88 1542.46,2304.93C1538.45,2322.97 1535.11,2338.35 1535.11,2338.35C1535.11,2338.35 1533.1,2301.59 1538.45,2285.55C1543.8,2269.5 1549.14,2244.11 1555.83,2242.77Z"/>
            </g>
        </g>
        <g transform="matrix(4.67547,0,0,4.67547,3767.06,3104.24)">
            <path d="M0,-40.271L80.796,-46.755C80.796,-46.755 78.058,-33.749 67.517,-23.986C67.517,-23.986 39.727,6.484 7.844,-26.519C7.844,-26.519 2.627,-32.148 0,-40.271" style="fill-rule:nonzero;"/>
        </g>
        <path d="M2189.58,2116.57L2160.31,2168.9L2039.24,2455.85C2039.24,2455.85 2038.49,2636.22 1983.3,2650.93C1928.11,2665.65 2144.75,2802.73 2144.75,2802.73C2144.75,2802.73 2258.28,2921.27 2299.28,2942.54C2313.66,2950 2385.29,2993.86 2459.56,3029.03C2536.05,3065.26 2611.72,3097.02 2615.71,3089.72L2898.3,2518.63C2898.3,2518.63 2843.21,2517.78 2768.99,2439.01C2703.49,2369.49 2718.73,2243.47 2641.46,2191.96C2564.2,2140.45 2189.58,2116.57 2189.58,2116.57Z"/>
        <g transform="matrix(-1,0,0,1,7717.11,0)">
            <path d="M2189.58,2116.57L2160.31,2168.9L2039.24,2455.85C2039.24,2455.85 2038.49,2636.22 1983.3,2650.93C1928.11,2665.65 2144.75,2802.73 2144.75,2802.73C2144.75,2802.73 2258.28,2921.27 2299.28,2942.54C2313.66,2950 2385.29,2993.86 2459.56,3029.03C2536.05,3065.26 2611.72,3097.02 2615.71,3089.72L2898.3,2518.63C2898.3,2518.63 2843.21,2517.78 2768.99,2439.01C2703.49,2369.49 2718.73,2243.47 2641.46,2191.96C2564.2,2140.45 2189.58,2116.57 2189.58,2116.57Z"/>
        </g>
        <g transform="matrix(0.908521,-0.417838,0.417838,0.908521,-755.896,2444.29)">
            <path d="M5387.87,2520.32C5387.87,2509.23 5378.87,2500.24 5367.79,2500.24L5055.15,2500.24C5044.07,2500.24 5035.07,2509.23 5035.07,2520.32L5035.07,2560.47C5035.07,2571.55 5044.07,2580.55 5055.15,2580.55L5367.79,2580.55C5378.87,2580.55 5387.87,2571.55 5387.87,2560.47L5387.87,2520.32Z" style="fill:rgb(247,31,0);"/>
        </g>
        <g transform="matrix(0.908521,-0.417838,0.417838,0.908521,-695.896,2565.29)">
            <path d="M5387.87,2520.32C5387.87,2509.23 5378.87,2500.24 5367.79,2500.24L5055.15,2500.24C5044.07,2500.24 5035.07,2509.23 5035.07,2520.32L5035.07,2560.47C5035.07,2571.55 5044.07,2580.55 5055.15,2580.55L5367.79,2580.55C5378.87,2580.55 5387.87,2571.55 5387.87,2560.47L5387.87,2520.32Z" style="fill:rgb(247,31,0);"/>
        </g>
        <g transform="matrix(0.908521,-0.417838,0.417838,0.908521,-637.896,2683.29)">
            <path d="M5387.87,2520.32C5387.87,2509.23 5378.87,2500.24 5367.79,2500.24L5055.15,2500.24C5044.07,2500.24 5035.07,2509.23 5035.07,2520.32L5035.07,2560.47C5035.07,2571.55 5044.07,2580.55 5055.15,2580.55L5367.79,2580.55C5378.87,2580.55 5387.87,2571.55 5387.87,2560.47L5387.87,2520.32Z" style="fill:rgb(247,31,0);"/>
        </g>
        <path d="M2952.66,1332.6C3026.25,1364.79 3375.78,1438.38 3578.14,1447.58C3780.51,1456.77 4263.42,1452.17 4497.98,1396.99C4732.53,1341.8 4783.12,1309.6 4783.12,1309.6C4783.12,1309.6 4976.29,1249.81 4884.31,1185.42C4825.64,1144.36 4689.01,1195.9 4607.69,1179.55C4561.51,1170.27 4535.09,1170.68 4534.77,1075.04C4534.44,977.265 4571.56,900.276 4433.59,785.297C4295.61,670.318 4074.85,481.753 3872.49,624.327C3670.13,766.901 3702.32,817.491 3522.96,766.901C3343.59,716.31 3325.19,569.137 3191.82,766.901C3058.44,964.664 3113.63,1042.85 3095.23,1153.23C3076.84,1263.61 3003.25,1162.43 2902.07,1203.82C2800.89,1245.21 2865.28,1291.2 2865.28,1291.2C2865.28,1291.2 2879.07,1300.4 2952.66,1332.6Z"/>
        <path d="M3099.61,1032.36C3085.49,1067.56 3101.58,1065.71 3098.85,1118.94C3098.85,1118.94 3058.4,1176.98 3127.43,1203.82C3189.64,1228.01 3433.11,1229.28 3504.56,1226.82C3583.65,1224.09 3933.84,1216.86 4205.84,1189.22C4392.55,1170.25 4542.41,1129.94 4542.48,1121.86C4543.52,1010.7 4537.59,945.597 4537.59,945.597C4537.59,945.597 4532.91,898.347 4331.81,987.295C4152.12,1066.77 4102.45,1038.25 3923.08,1038.25C3743.72,1038.25 3582.74,1061.25 3417.18,1042.85C3251.61,1024.45 3110.01,1006.42 3099.61,1032.36Z" style="fill:rgb(247,31,0);"/>
        <g transform="matrix(1,0,0,1,-279.04,304.354)">
            <g transform="matrix(0.984808,0.173648,-0.173648,0.984808,192.524,-833.48)">
                <path d="M4757.81,644.54C4757.81,644.54 4691.12,749.171 4691.12,794.013C4691.12,830.819 4721,860.701 4757.81,860.701C4794.61,860.701 4824.49,830.819 4824.49,794.013C4824.49,749.171 4757.81,644.54 4757.81,644.54Z" style="fill:rgb(165,43,0);"/>
            </g>
            <g transform="matrix(0.34202,0.939693,-0.939693,0.34202,3740.6,-4067.18)">
                <path d="M4757.81,644.54C4757.81,644.54 4691.12,749.171 4691.12,794.013C4691.12,830.819 4721,860.701 4757.81,860.701C4794.61,860.701 4824.49,830.819 4824.49,794.013C4824.49,749.171 4757.81,644.54 4757.81,644.54Z" style="fill:rgb(165,43,0);"/>
            </g>
            <g transform="matrix(0.642788,-0.766044,0.766044,0.642788,1218.43,3856.93)">
                <path d="M4757.81,644.54C4757.81,644.54 4691.12,749.171 4691.12,794.013C4691.12,830.819 4721,860.701 4757.81,860.701C4794.61,860.701 4824.49,830.819 4824.49,794.013C4824.49,749.171 4757.81,644.54 4757.81,644.54Z" style="fill:rgb(165,43,0);"/>
            </g>
            <g transform="matrix(-0.34202,-0.939693,0.939693,-0.34202,5792.35,5312.26)">
                <path d="M4757.81,644.54C4757.81,644.54 4691.12,749.171 4691.12,794.013C4691.12,830.819 4721,860.701 4757.81,860.701C4794.61,860.701 4824.49,830.819 4824.49,794.013C4824.49,749.171 4757.81,644.54 4757.81,644.54Z" style="fill:rgb(165,43,0);"/>
            </g>
            <g transform="matrix(-0.984808,-0.173648,0.173648,-0.984808,9339.88,2076.72)">
                <path d="M4757.81,644.54C4757.81,644.54 4691.12,749.171 4691.12,794.013C4691.12,830.819 4721,860.701 4757.81,860.701C4794.61,860.701 4824.49,830.819 4824.49,794.013C4824.49,749.171 4757.81,644.54 4757.81,644.54Z" style="fill:rgb(165,43,0);"/>
            </g>
            <g transform="matrix(-0.642788,0.766044,-0.766044,-0.642788,8310.13,-2615.25)">
                <path d="M4757.81,644.54C4757.81,644.54 4691.12,749.171 4691.12,794.013C4691.12,830.819 4721,860.701 4757.81,860.701C4794.61,860.701 4824.49,830.819 4824.49,794.013C4824.49,749.171 4757.81,644.54 4757.81,644.54Z" style="fill:rgb(165,43,0);"/>
            </g>
        </g>
        <g transform="matrix(0.625475,0,0,0.625475,1433.7,736.064)">
            <g transform="matrix(0.984808,0.173648,-0.173648,0.984808,192.524,-833.48)">
                <path d="M4757.81,644.54C4757.81,644.54 4691.12,749.171 4691.12,794.013C4691.12,830.819 4721,860.701 4757.81,860.701C4794.61,860.701 4824.49,830.819 4824.49,794.013C4824.49,749.171 4757.81,644.54 4757.81,644.54Z" style="fill:rgb(240,222,214);"/>
            </g>
            <g transform="matrix(0.34202,0.939693,-0.939693,0.34202,3740.6,-4067.18)">
                <path d="M4757.81,644.54C4757.81,644.54 4691.12,749.171 4691.12,794.013C4691.12,830.819 4721,860.701 4757.81,860.701C4794.61,860.701 4824.49,830.819 4824.49,794.013C4824.49,749.171 4757.81,644.54 4757.81,644.54Z" style="fill:rgb(240,222,214);"/>
            </g>
            <g transform="matrix(0.642788,-0.766044,0.766044,0.642788,1218.43,3856.93)">
                <path d="M4757.81,644.54C4757.81,644.54 4691.12,749.171 4691.12,794.013C4691.12,830.819 4721,860.701 4757.81,860.701C4794.61,860.701 4824.49,830.819 4824.49,794.013C4824.49,749.171 4757.81,644.54 4757.81,644.54Z" style="fill:rgb(240,222,214);"/>
            </g>
            <g transform="matrix(-0.34202,-0.939693,0.939693,-0.34202,5792.35,5312.26)">
                <path d="M4757.81,644.54C4757.81,644.54 4691.12,749.171 4691.12,794.013C4691.12,830.819 4721,860.701 4757.81,860.701C4794.61,860.701 4824.49,830.819 4824.49,794.013C4824.49,749.171 4757.81,644.54 4757.81,644.54Z" style="fill:rgb(240,222,214);"/>
            </g>
            <g transform="matrix(-0.984808,-0.173648,0.173648,-0.984808,9339.88,2076.72)">
                <path d="M4757.81,644.54C4757.81,644.54 4691.12,749.171 4691.12,794.013C4691.12,830.819 4721,860.701 4757.81,860.701C4794.61,860.701 4824.49,830.819 4824.49,794.013C4824.49,749.171 4757.81,644.54 4757.81,644.54Z" style="fill:rgb(240,222,214);"/>
            </g>
            <g transform="matrix(-0.642788,0.766044,-0.766044,-0.642788,8310.13,-2615.25)">
                <path d="M4757.81,644.54C4757.81,644.54 4691.12,749.171 4691.12,794.013C4691.12,830.819 4721,860.701 4757.81,860.701C4794.61,860.701 4824.49,830.819 4824.49,794.013C4824.49,749.171 4757.81,644.54 4757.81,644.54Z" style="fill:rgb(240,222,214);"/>
            </g>
        </g>
        <g transform="matrix(0.625475,0,0,0.625475,1212.94,538.3)">
            <g transform="matrix(0.984808,0.173648,-0.173648,0.984808,192.524,-833.48)">
                <path d="M4757.81,644.54C4757.81,644.54 4691.12,749.171 4691.12,794.013C4691.12,830.819 4721,860.701 4757.81,860.701C4794.61,860.701 4824.49,830.819 4824.49,794.013C4824.49,749.171 4757.81,644.54 4757.81,644.54Z" style="fill:rgb(240,222,214);"/>
            </g>
            <g transform="matrix(0.34202,0.939693,-0.939693,0.34202,3740.6,-4067.18)">
                <path d="M4757.81,644.54C4757.81,644.54 4691.12,749.171 4691.12,794.013C4691.12,830.819 4721,860.701 4757.81,860.701C4794.61,860.701 4824.49,830.819 4824.49,794.013C4824.49,749.171 4757.81,644.54 4757.81,644.54Z" style="fill:rgb(240,222,214);"/>
            </g>
            <g transform="matrix(0.642788,-0.766044,0.766044,0.642788,1218.43,3856.93)">
                <path d="M4757.81,644.54C4757.81,644.54 4691.12,749.171 4691.12,794.013C4691.12,830.819 4721,860.701 4757.81,860.701C4794.61,860.701 4824.49,830.819 4824.49,794.013C4824.49,749.171 4757.81,644.54 4757.81,644.54Z" style="fill:rgb(240,222,214);"/>
            </g>
            <g transform="matrix(-0.34202,-0.939693,0.939693,-0.34202,5792.35,5312.26)">
                <path d="M4757.81,644.54C4757.81,644.54 4691.12,749.171 4691.12,794.013C4691.12,830.819 4721,860.701 4757.81,860.701C4794.61,860.701 4824.49,830.819 4824.49,794.013C4824.49,749.171 4757.81,644.54 4757.81,644.54Z" style="fill:rgb(240,222,214);"/>
            </g>
            <g transform="matrix(-0.984808,-0.173648,0.173648,-0.984808,9339.88,2076.72)">
                <path d="M4757.81,644.54C4757.81,644.54 4691.12,749.171 4691.12,794.013C4691.12,830.819 4721,860.701 4757.81,860.701C4794.61,860.701 4824.49,830.819 4824.49,794.013C4824.49,749.171 4757.81,644.54 4757.81,644.54Z" style="fill:rgb(240,222,214);"/>
            </g>
            <g transform="matrix(-0.642788,0.766044,-0.766044,-0.642788,8310.13,-2615.25)">
                <path d="M4757.81,644.54C4757.81,644.54 4691.12,749.171 4691.12,794.013C4691.12,830.819 4721,860.701 4757.81,860.701C4794.61,860.701 4824.49,830.819 4824.49,794.013C4824.49,749.171 4757.81,644.54 4757.81,644.54Z" style="fill:rgb(240,222,214);"/>
            </g>
        </g>
        <g transform="matrix(1,0,0,1,16.4477,-18.7974)">
            <g transform="matrix(1.02504,0,0,1.02504,-90.074,-95.9592)">
                <ellipse cx="2738.35" cy="2590.96" rx="74.896" ry="72.693" style="fill:rgb(165,43,0);"/>
            </g>
            <ellipse cx="2738.35" cy="2590.96" rx="74.896" ry="72.693" style="fill:rgb(226,239,237);"/>
        </g>
        <g transform="matrix(1,0,0,1,-93.6933,161.834)">
            <g transform="matrix(1.10389,0,0,1.10389,-303.837,-298.164)">
                <ellipse cx="2738.35" cy="2590.96" rx="74.896" ry="72.693" style="fill:rgb(165,43,0);"/>
            </g>
            <ellipse cx="2738.35" cy="2590.96" rx="74.896" ry="72.693" style="fill:rgb(226,239,237);"/>
        </g>
        <g transform="matrix(1,0,0,1,-203.834,342.465)">
            <g transform="matrix(1.10389,0,0,1.10389,-303.837,-298.164)">
                <ellipse cx="2738.35" cy="2590.96" rx="74.896" ry="72.693" style="fill:rgb(165,43,0);"/>
            </g>
            <ellipse cx="2738.35" cy="2590.96" rx="74.896" ry="72.693" style="fill:rgb(226,239,237);"/>
        </g>
    </g>
</svg>
